<?xml version="1.0" encoding="utf-8"?>
<!-- Generator: Adobe Illustrator 19.0.1, SVG Export Plug-In . SVG Version: 6.00 Build 0)  -->
<svg version="1.1" id="Layer_1" xmlns="http://www.w3.org/2000/svg" xmlns:xlink="http://www.w3.org/1999/xlink" x="0px" y="0px"
	 viewBox="0 0 40 40" enable-background="new 0 0 40 40" xml:space="preserve">
<path fill="#FFFFFF" d="M35.9,6H33V3.8c0-2-1.6-3.5-3.5-3.5H28c-2,0-3.5,1.6-3.5,3.5V6h-8.2V3.8c0-2-1.6-3.5-3.5-3.5h-1.5
	c-2,0-3.5,1.6-3.5,3.5V6h-3C3.3,6,2,7.2,2,8.7V37c0,1.5,1.2,2.8,2.8,2.8h31.1c1.5,0,2.8-1.2,2.8-2.8V8.7C38.7,7.2,37.4,6,35.9,6z
	 M19.6,14.5v6.2h-6.9v-6.2C12.7,14.5,19.6,14.5,19.6,14.5z M19.6,22.2v7.1h-6.9v-7.1H19.6z M21.1,22.2H28v7.1h-6.8v-7.1H21.1z
	 M21.1,20.7v-6.2H28v6.2H21.1z M27.5,3.8c0-0.3,0.2-0.5,0.5-0.5h1.5c0.3,0,0.5,0.2,0.5,0.5V6h-2.6V3.8H27.5z M10.7,3.8
	c0-0.3,0.2-0.5,0.5-0.5h1.5c0.3,0,0.5,0.2,0.5,0.5V6h-2.6L10.7,3.8L10.7,3.8z M35.9,37H4.8V14.5h6.5v6.2H4.8v1.5h6.5v7.1H4.8v1.5
	h6.5V37h1.5v-6.2h6.9V37h1.5v-6.2H28V37h1.5v-6.2h6.4v-1.5h-6.4v-7.1h6.4v-1.5h-6.4v-6.2h6.4V37z"/>
</svg>
